<mxfile host="app.diagrams.net" agent="Mozilla/5.0 (Windows NT 10.0; Win64; x64) AppleWebKit/537.36 (KHTML, like Gecko) Chrome/131.0.0.0 Safari/537.36" version="25.0.3" pages="2">
  <diagram name="第 1 页" id="4Xm8h-WjFLRTdW3ImoNQ">
    <mxGraphModel dx="1434" dy="1907" grid="1" gridSize="10" guides="1" tooltips="1" connect="1" arrows="1" fold="1" page="1" pageScale="1" pageWidth="827" pageHeight="1169" math="0" shadow="0">
      <root>
        <mxCell id="0" />
        <mxCell id="1" parent="0" />
        <mxCell id="OjnHHm5raW652ae1jEDS-37" value="" style="rounded=0;whiteSpace=wrap;html=1;strokeWidth=2;dashed=1;fillColor=none;" vertex="1" parent="1">
          <mxGeometry x="670" y="-10" width="311" height="330" as="geometry" />
        </mxCell>
        <mxCell id="OjnHHm5raW652ae1jEDS-36" value="" style="rounded=0;whiteSpace=wrap;html=1;strokeWidth=2;dashed=1;fillColor=none;movable=1;resizable=1;rotatable=1;deletable=1;editable=1;locked=0;connectable=1;" vertex="1" parent="1">
          <mxGeometry x="50" y="-10" width="570" height="330" as="geometry" />
        </mxCell>
        <mxCell id="OjnHHm5raW652ae1jEDS-2" value="系统主平台" style="rounded=0;whiteSpace=wrap;html=1;" vertex="1" parent="1">
          <mxGeometry x="75" y="20" width="500" height="135" as="geometry" />
        </mxCell>
        <mxCell id="OjnHHm5raW652ae1jEDS-3" value="第三方无人机管控平台" style="rounded=0;whiteSpace=wrap;html=1;fillColor=#fff2cc;strokeColor=#d6b656;" vertex="1" parent="1">
          <mxGeometry x="364" y="53.75" width="190" height="67.5" as="geometry" />
        </mxCell>
        <mxCell id="OjnHHm5raW652ae1jEDS-9" value="采集/拼接数据存储" style="rounded=0;whiteSpace=wrap;html=1;" vertex="1" parent="1">
          <mxGeometry x="345" y="210" width="230" height="70" as="geometry" />
        </mxCell>
        <mxCell id="OjnHHm5raW652ae1jEDS-10" value="MQTT消息服务" style="rounded=0;whiteSpace=wrap;html=1;" vertex="1" parent="1">
          <mxGeometry x="85" y="210" width="240" height="70" as="geometry" />
        </mxCell>
        <mxCell id="OjnHHm5raW652ae1jEDS-15" value="无人机图像拼接" style="rounded=0;whiteSpace=wrap;html=1;" vertex="1" parent="1">
          <mxGeometry x="750.5" y="120" width="150" height="70" as="geometry" />
        </mxCell>
        <mxCell id="OjnHHm5raW652ae1jEDS-38" value="&lt;font style=&quot;font-size: 16px;&quot;&gt;外部嗨森服务器&lt;/font&gt;" style="text;strokeColor=none;align=center;fillColor=none;html=1;verticalAlign=middle;whiteSpace=wrap;rounded=0;" vertex="1" parent="1">
          <mxGeometry x="649" y="-260" width="83" height="30" as="geometry" />
        </mxCell>
        <mxCell id="OjnHHm5raW652ae1jEDS-44" value="" style="shape=flexArrow;endArrow=classic;html=1;rounded=0;" edge="1" parent="1">
          <mxGeometry width="50" height="50" relative="1" as="geometry">
            <mxPoint x="335" y="213" as="sourcePoint" />
            <mxPoint x="335" y="173" as="targetPoint" />
          </mxGeometry>
        </mxCell>
        <mxCell id="OjnHHm5raW652ae1jEDS-46" value="" style="rounded=0;whiteSpace=wrap;html=1;strokeWidth=2;dashed=1;fillColor=none;" vertex="1" parent="1">
          <mxGeometry x="75" y="200" width="520" height="90" as="geometry" />
        </mxCell>
        <mxCell id="OjnHHm5raW652ae1jEDS-47" value="&lt;font style=&quot;font-size: 16px;&quot;&gt;内部云服务器&lt;/font&gt;" style="text;strokeColor=none;align=center;fillColor=none;html=1;verticalAlign=middle;whiteSpace=wrap;rounded=0;" vertex="1" parent="1">
          <mxGeometry x="50" y="-50" width="110" height="30" as="geometry" />
        </mxCell>
        <mxCell id="OjnHHm5raW652ae1jEDS-48" value="&lt;font style=&quot;font-size: 16px;&quot;&gt;基础服务&lt;/font&gt;" style="text;strokeColor=none;align=center;fillColor=none;html=1;verticalAlign=middle;whiteSpace=wrap;rounded=0;" vertex="1" parent="1">
          <mxGeometry x="55" y="170" width="110" height="30" as="geometry" />
        </mxCell>
        <mxCell id="gbovEgFqb56IA30s9gSb-1" value="&lt;font style=&quot;font-size: 16px;&quot;&gt;外部嗨森服务器&lt;/font&gt;" style="text;strokeColor=none;align=center;fillColor=none;html=1;verticalAlign=middle;whiteSpace=wrap;rounded=0;" vertex="1" parent="1">
          <mxGeometry x="670" y="-50" width="120" height="30" as="geometry" />
        </mxCell>
        <mxCell id="gbovEgFqb56IA30s9gSb-2" value="" style="endArrow=classic;startArrow=classic;html=1;rounded=0;exitX=1;exitY=0.5;exitDx=0;exitDy=0;entryX=0;entryY=0.5;entryDx=0;entryDy=0;" edge="1" parent="1" source="OjnHHm5raW652ae1jEDS-36" target="OjnHHm5raW652ae1jEDS-37">
          <mxGeometry width="50" height="50" relative="1" as="geometry">
            <mxPoint x="630" y="190" as="sourcePoint" />
            <mxPoint x="680" y="140" as="targetPoint" />
          </mxGeometry>
        </mxCell>
      </root>
    </mxGraphModel>
  </diagram>
  <diagram id="P91ad8MJlzlCleZtFZEv" name="第 2 页">
    <mxGraphModel dx="1434" dy="738" grid="1" gridSize="10" guides="1" tooltips="1" connect="1" arrows="1" fold="1" page="1" pageScale="1" pageWidth="827" pageHeight="1169" math="0" shadow="0">
      <root>
        <mxCell id="0" />
        <mxCell id="1" parent="0" />
        <mxCell id="UWLtd3rKLLE8tEBnxUpn-1" value="" style="endArrow=classic;html=1;rounded=0;" edge="1" parent="1">
          <mxGeometry relative="1" as="geometry">
            <mxPoint x="70" y="380" as="sourcePoint" />
            <mxPoint x="730" y="380" as="targetPoint" />
          </mxGeometry>
        </mxCell>
        <mxCell id="UWLtd3rKLLE8tEBnxUpn-2" value="Label" style="edgeLabel;resizable=0;html=1;;align=center;verticalAlign=middle;" connectable="0" vertex="1" parent="UWLtd3rKLLE8tEBnxUpn-1">
          <mxGeometry relative="1" as="geometry" />
        </mxCell>
      </root>
    </mxGraphModel>
  </diagram>
</mxfile>
